<?xml version="1.0" encoding="UTF-8"?>
<svg id="Capa_1" xmlns="http://www.w3.org/2000/svg" viewBox="0 0 11.42 20.5">
  <defs>
    <style>
      .cls-1 {
        fill: #1f352c;
      }
    </style>
  </defs>
  <path class="cls-1" d="M7.01,13.29c-.12-.26-.23-.59-.28-.98-.05-.38-.04-.78.07-1.16.11-.35.32-.7.52-1,.22-.32.48-.62.77-.89.12-.11.24-.22.38-.31.25-.17.45-.38.48-.69.03-.3-.01-.62-.13-.89-.11-.24-.23-.47-.26-.73-.04-.29.08-.54.14-.82.17-.85-.12-1.67-.45-2.44-.06-.15-.13-.3-.19-.45-.14-.33-.28-.59-.37-.75.34-.14.74-.28,1.19-.39.21-.05.41-.09.61-.13h0c1.02.94,1.66,2.27,1.66,3.74,0,.54-.08,1.05-.24,1.54.27.28.33,1.04.17,1.6-.09.31-.25.57-.25.57-.06.1-.13.19-.2.28-.08.11-.15.22-.22.34-.02.04-.04.08-.06.11-.08.16-.19.27-.37.32-.1.03-.22.04-.32.02-.05,0-.09-.02-.13-.04,0,.01.02.03.02.04.1.15.22.27.29.43.08.16.11.34.12.51.05.46.02.92-.07,1.37-.04.21-.1.41-.15.62-.09.42-.14.85-.15,1.29,0,.32-.18.65-.36.92-.73,1.07-1.47,2.14-2.3,3.13-.25.29-.5.58-.81.79-.23.16-.49.28-.68.49-.09.09-.16.2-.25.29-.24.22-.6.25-.92.23-.3-.01-.59-.05-.89-.1-.29-.05-.58-.11-.84-.25-.23-.12-.42-.3-.61-.48-.24-.24-.46-.5-.61-.8-.18-.36-.25-.76-.3-1.16-.09-.74-.12-1.48-.1-2.22.01-.61,0-.63-.02-.84-.05-.67-.17-.83-.14-1.34.01-.24.05-.44.08-.6.02-.09.04-.15.05-.2.05-.18.14-.47.26-.87,0,.04,0,.12.05.21.03.05.06.09.09.12.28-.17.53-.36.77-.58.04-.04.09-.08.14-.1.08-.03.17,0,.24.05s.14.09.22.11c.12-.07.25-.14.38-.1.07.02.12.06.18.1.5.36,1.06.63,1.66.8.09.03.18.05.26.1.08.06.14.15.2.24.23.36.51.7.81,1,.04.04.08.08.14.09.07,0,.13-.05.16-.11.03-.06.03-.14.02-.21.17.08.34.15.52.21ZM4.74,13.82c.05-.1.05-.22.03-.33-.02-.13-.07-.27-.15-.38-.17-.24-.48-.33-.72-.49l.23.29c-.37-.04-.7-.23-.98-.45-.08-.06-.15-.12-.22-.19-.09-.08-.11-.1-.18,0-.03.04-.18.46-.11.46-.13,0-.25-.07-.34-.16-.09-.09-.16-.21-.25-.3-.09.11-.15.24-.21.38-.02.05-.04.1-.04.15,0,.04,0,.08.01.12.03.17.08.34.14.5,0,.02.02.04.03.05.02.02.05.02.08.02.27,0,.53-.15.67-.38.02-.04.05-.09.08-.12.07-.06.19-.05.26,0,.08.05.13.13.18.22.07.13.13.26.19.39.05.13.09.26.19.36.09.08.21.12.33.14.18.02.36,0,.53-.08.1-.05.2-.11.25-.21Z"/>
  <path class="cls-1" d="M9.24,1.44s0,0,0,0c-.54.18-1.08.36-1.62.54-.46-.18-1.16-.38-1.99-.32-.67.05-1,.25-1.69.41-.52.12-1.29.24-2.28.17C2.63,1.03,4.15.25,5.85.25c1.29,0,2.47.45,3.39,1.19Z"/>
  <path class="cls-1" d="M6.8,4.61c.1.64-.39.85-.34,1.92.03.66.22.73.16,1.33-.05.51-.23.9-.5,1.49-.25.54-.38.81-.55.92-.67.41-1.88-.22-1.94-.05-.01.03.03.06.02.16,0,.02-.01.14-.11.23-.13.11-.3.06-.33.06-.01,0-.03-.01-.07-.02-.05-.02-.1-.04-.15-.06-.1-.04-.21-.07-.32-.07-.15,0-.25.14-.39.16-.25.04-.52-.05-.66-.28-.04-.07-.07-.15-.08-.23-.01-.09,0-.19.02-.28.03-.11.11-.21.16-.32.05-.1.1-.2.14-.3.04-.1.17-.39.26-.78.05-.21.12-.42.04-.63-.13-.36-.45-.57-.78-.7-.16-.07-.36-.11-.75-.18-.14-.03-.25-.04-.33-.04-.01-.05-.03-.1-.03-.16-.03-.25,0-.61.29-1.08,0-.11-.01-.23-.01-.34,0-.1,0-.2,0-.3.39-.8.66-1.26,1.08-1.59,1.22-.93,2.66-.68,2.77-.66.96.18,2.25.86,2.4,1.83ZM5.61,8.17c.3.02.37.01.37,0,0,0-.11-.02-.26-.05-.24-.04-.53-.09-.82-.16-.11-.03-.29-.07-.53-.16-.21-.08-.36-.15-.37-.14,0,0,.03.04.23.15-.07,0-.14.02-.22.04-.14.04-.26.09-.36.13.05.02.11.04.18.07.14.06.26.14.4.19.16.06.33.11.5.12.29.01.52-.07.7-.14.08-.03.14-.06.18-.08ZM5.22,7.61s.5.08.51.04c0-.02-.68-.15-.74-.16-.26-.05-.52-.11-.79-.14-.26-.03-.54-.04-.78.08-.09.04-.17.1-.22.18-.01.02-.12.21-.08.22,0,0,.04-.07.05-.08.04-.06.08-.12.13-.17.1-.1.24-.15.38-.17.29-.05.59,0,.88.07.22.05.44.09.67.12ZM5.12,9.63s-.61-.3-1.15-.79c-.14-.13-.26-.27-.37-.42-.02-.03-.24-.43-.25-.43,0,0,.04.15.11.29.24.5.66.78,1.05,1.05.05.03.2.13.41.23.03.01.19.09.2.08Z"/>
</svg>